<svg width="140" height="27" viewBox="0 0 140 27" fill="none" xmlns="http://www.w3.org/2000/svg">
<path d="M63.7698 12.4942C63.1246 10.9819 62.1223 9.7447 60.7441 8.80682C59.2469 7.78646 57.5681 7.25793 55.7577 7.13268C54.5205 7.04714 53.2989 7.16934 52.1119 7.52067C49.8912 8.18054 48.1058 9.41781 46.831 11.3272C45.8726 12.76 45.3996 14.3516 45.2837 16.0471C45.2023 17.2294 45.2712 18.4055 45.5625 19.5634C45.9478 21.0848 46.6431 22.4503 47.7362 23.6082C49.5403 25.5114 51.8206 26.4554 54.4328 26.6693C55.4382 26.7517 56.4436 26.6998 57.4428 26.5196C58.9995 26.2385 60.4278 25.6703 61.6963 24.7385C62.2319 24.3444 62.7174 23.8984 63.1433 23.3607C62.3885 22.5756 61.6368 21.7966 60.9101 21.042C60.4309 21.3414 60.0018 21.6499 59.5351 21.8974C58.6769 22.3587 57.7404 22.5787 56.7631 22.6673C55.6606 22.7711 54.5769 22.7009 53.5213 22.3648C51.7172 21.7905 50.5207 20.6296 49.9851 18.8302C50.0227 18.8119 50.029 18.8058 50.0384 18.8027C50.0478 18.7996 50.0572 18.7996 50.0666 18.7996C50.0853 18.7996 50.1041 18.7966 50.1261 18.7966C54.8337 18.7966 59.5445 18.7966 64.2521 18.7966C64.2709 18.7966 64.2897 18.7966 64.3116 18.7966C64.321 18.7966 64.3304 18.7966 64.3398 18.7966C64.3586 18.7935 64.3774 18.7935 64.3962 18.7905C64.4056 18.7874 64.4119 18.7813 64.4213 18.7783C64.4275 18.7721 64.4369 18.766 64.4432 18.7599C64.5935 17.6479 64.6155 16.7284 64.5246 15.6225C64.4369 14.541 64.1958 13.4962 63.7698 12.4942ZM49.9162 15.2192C50.0258 14.6907 50.2138 14.208 50.4769 13.7559C51.2662 12.3964 52.4627 11.596 54.0256 11.3119C55.3787 11.0675 56.6629 11.26 57.8625 11.929C59.0778 12.6072 59.8922 13.8445 60.0018 15.2192C56.6441 15.2192 53.2895 15.2192 49.9162 15.2192Z" fill="#00317A"/>
<path d="M76.837 7.3374C71.6359 7.3374 67.4062 11.4148 67.4062 16.4286V26.2546H72.3637V16.4286C72.3637 14.0527 74.3692 12.1194 76.8338 12.1194C79.2985 12.1194 81.304 14.0527 81.304 16.4286V26.2546H86.2614V16.4286C86.2677 11.4148 82.0349 7.3374 76.837 7.3374Z" fill="#00317A"/>
<path d="M37.6371 17.3904C37.6371 19.7664 35.6072 21.6997 33.1126 21.6997C30.6179 21.6997 28.5881 19.7664 28.5881 17.3904V7.56445H23.5703V17.3904C23.5703 22.4043 27.8514 26.4817 33.1158 26.4817C38.3801 26.4817 42.6612 22.4043 42.6612 17.3904V7.56445H37.6434V17.3904H37.6371Z" fill="#00317A"/>
<path d="M111.48 12.0581H115.674V26.2537H120.672V7.56445H111.48V12.0581Z" fill="#00317A"/>
<path d="M133.581 22.0246C131.519 22.0246 129.843 20.4336 129.843 18.4762V12.0999H136.386V7.64786H129.843V0.5H125.152V18.4792C125.152 22.8922 128.935 26.4827 133.584 26.4827C136.152 26.4827 138.451 25.3839 140.001 23.6578L136.664 20.4906C135.984 21.4152 134.858 22.0246 133.581 22.0246Z" fill="#00317A"/>
<path d="M99.6152 6.96491H99.5775C97.6929 6.96491 95.8899 7.46409 94.3131 8.37468V0.5H89.3282V16.803C89.3093 22.2484 93.8922 26.6924 99.5461 26.7106H99.5806C105.219 26.7106 109.814 22.3028 109.833 16.8725C109.843 14.2345 108.784 11.7508 106.855 9.88124C104.924 8.00862 102.351 6.97399 99.6152 6.96491ZM104.845 16.8574C104.836 19.6467 102.477 21.9126 99.5806 21.9096H99.5618C98.1546 21.9065 96.8353 21.3741 95.8428 20.4121C94.8533 19.45 94.3068 18.1764 94.3131 16.8211C94.3162 15.4658 94.8722 14.1952 95.8679 13.2392C96.8605 12.2893 98.1766 11.766 99.5775 11.766H99.5963C101.004 11.769 102.323 12.3014 103.315 13.2634C104.308 14.2255 104.851 15.5021 104.845 16.8574Z" fill="#00317A"/>
<path d="M10.2871 6.96491H10.2494C8.36473 6.96491 6.56175 7.46409 4.98493 8.37468V0.5H5.79204e-05V16.803C-0.0187885 22.2484 4.56403 26.6924 10.218 26.7106H10.2525C15.8907 26.7106 20.4861 22.3028 20.505 16.8725C20.5144 14.2345 19.4558 11.7508 17.5272 9.88124C15.5955 8.00862 13.0229 6.97399 10.2871 6.96491ZM15.5169 16.8574C15.5075 19.6467 13.1486 21.9126 10.2525 21.9096H10.2337C8.82646 21.9065 7.50721 21.3741 6.51463 20.4121C5.5252 19.45 4.97865 18.1764 4.98493 16.8211C4.98807 15.4658 5.54405 14.1952 6.53977 13.2392C7.53234 12.2893 8.84845 11.766 10.2494 11.766H10.2682C11.6754 11.769 12.9947 12.3014 13.9872 13.2634C14.9798 14.2255 15.5232 15.5021 15.5169 16.8574Z" fill="#00317A"/>
</svg>
