<svg xmlns="http://www.w3.org/2000/svg" width="208.961" height="60.012" viewBox="0 0 208.961 60.012">
    <defs>
        <style>
            .cls-1{fill:#007bc8}.cls-2{fill:#fff}
        </style>
    </defs>
    <g id="Grupo_3501" transform="translate(-57.039 -46.664)">
        <g id="Grupo_2816" transform="translate(-13.961 -60.336)">
            <g id="Componente_16_182" transform="translate(71 107)">
                <g id="Grupo_2812">
                    <path id="Rectángulo_2069" d="M0 0H205.374V12.462H0z" class="cls-1" transform="translate(2.009 35.56)"/>
                    <g id="Grupo_2806">
                        <g id="Grupo_2805">
                            <g id="Grupo_2804">
                                <path id="Trazado_522" d="M265.793 358.41c0-3.771-1.97-3.522-3.854-3.565v-1.084c1.633.077 3.309.077 4.946.077 1.76 0 4.15-.077 7.254-.077 10.854 0 16.766 7.246 16.766 14.671 0 4.152-2.43 14.589-17.27 14.589-2.134 0-4.111-.082-6.078-.082-1.887 0-3.734.043-5.619.082v-1.092c2.51-.253 3.731-.334 3.854-3.184zm4.107 19.663c0 3.23 2.309 3.6 4.361 3.6 9.059 0 12.03-6.83 12.03-13.077 0-7.837-5.029-13.5-13.121-13.5-1.719 0-2.512.121-3.27.167z" class="cls-2" transform="translate(-261.939 -353.294)"/>
                                <path id="Trazado_523" d="M338.283 381.225h.795c1.175 0 2.012 0 2.012-1.388v-11.355c0-1.847-.626-2.1-2.181-2.931v-.673c1.973-.591 4.319-1.38 4.488-1.512a1.512 1.512 0 0 1 .756-.206c.206 0 .292.249.292.583v16.094c0 1.388.925 1.388 2.1 1.388h.712v1.092c-1.425 0-2.892-.082-4.4-.082s-3.018.043-4.568.082zm4.488-24.521a2.057 2.057 0 1 1 0-4.113 2.054 2.054 0 0 1 2.054 2.018 2.1 2.1 0 0 1-2.054 2.091z" class="cls-2" transform="translate(-307.846 -352.59)"/>
                                <path id="Trazado_524" d="M366.6 384.673c0-1.547-.46-1.967-2.429-2.76v-.8a58.361 58.361 0 0 0 5.532-2.01c.126 0 .249.082.249.412v2.733c2.395-1.722 4.449-3.145 7.258-3.145 3.565 0 4.82 2.6 4.82 5.866v10.811c0 1.388.925 1.388 2.1 1.388h.756v1.092c-1.471 0-2.937-.082-4.441-.082s-3.02.043-4.531.082v-1.092h.756c1.174 0 2.008 0 2.008-1.388v-10.85c0-2.395-1.464-3.565-3.855-3.565-1.343 0-3.477 1.089-4.867 2.014v12.4c0 1.388.929 1.388 2.1 1.388h.754v1.092c-1.467 0-2.939-.082-4.451-.082s-3.017.043-4.525.082v-1.092h.76c1.172 0 2.008 0 2.008-1.388z" class="cls-2" transform="translate(-323.208 -368.532)"/>
                                <path id="Trazado_525" d="M419.566 386.69a9.859 9.859 0 0 0 0 2.43c.245 3.985 2.807 7.254 6.158 7.254a8.036 8.036 0 0 0 5.662-2.81l.587.587c-1.93 2.558-4.317 4.737-7.753 4.737-6.669 0-8.008-6.455-8.008-9.137 0-8.218 5.532-10.648 8.463-10.648 3.4 0 7.05 2.135 7.087 6.578a5.173 5.173 0 0 1-.037.758l-.383.253zm7.421-1.345c1.044 0 1.166-.544 1.166-1.045a3.554 3.554 0 0 0-3.646-3.86c-2.554 0-4.315 1.885-4.818 4.906z" class="cls-2" transform="translate(-354.706 -368.532)"/>
                                <path id="Trazado_526" d="M457.632 397.167h1.137c1.172 0 2 0 2-1.388V384c0-1.3-1.547-1.551-2.177-1.889v-.622c3.059-1.3 4.741-2.391 5.12-2.391.247 0 .373.121.373.545v3.771h.089c1.044-1.633 2.807-4.315 5.363-4.315a2.282 2.282 0 0 1 2.387 2.22 2.034 2.034 0 0 1-1.969 2.142c-1.3 0-1.3-1.011-2.768-1.011a3.54 3.54 0 0 0-3.059 3.483v9.843c0 1.388.836 1.388 2.012 1.388h2.346v1.092c-2.305-.039-4.062-.082-5.866-.082-1.72 0-3.479.043-4.991.082z" class="cls-2" transform="translate(-379.614 -368.532)"/>
                                <path id="Trazado_527" d="M496.978 392.432c.55 2.764 2.225 5.116 5.286 5.116 2.471 0 3.388-1.512 3.388-2.978 0-4.945-9.131-3.359-9.131-10.1 0-2.352 1.889-5.365 6.5-5.365a11.058 11.058 0 0 1 4.776 1.213l.3 4.276h-.964c-.418-2.639-1.888-4.151-4.572-4.151-1.678 0-3.268.968-3.268 2.768 0 4.91 9.724 3.4 9.724 9.979 0 2.764-2.221 5.7-7.209 5.7a11.06 11.06 0 0 1-5.118-1.421l-.461-4.824z" class="cls-2" transform="translate(-402.821 -368.532)"/>
                            </g>
                        </g>
                    </g>
                    <g id="Grupo_2807" transform="translate(145.475 .875)">
                        <path id="Trazado_528" d="M642.923 369.224L627.009 354.8h10.114l10.883 9.784 11.036-9.8h10.7l-16.358 14.366 16.921 15.15-10.587.014-11.638-10.448-12.093 10.451-9.154-.014z" class="cls-2" transform="translate(-626.833 -354.785)"/>
                    </g>
                    <g id="Grupo_2808" transform="translate(180.403 .9)">
                        <path id="Trazado_529" d="M714.445 369.276l17.85-14.415 10.705-.013-17.466 14.366 15.9 15.135h-10.575z" class="cls-1" transform="translate(-714.445 -354.848)"/>
                    </g>
                    <g id="Grupo_2809" transform="translate(114.218 .876)">
                        <path id="Trazado_530" d="M556.22 360.936v7.544h20.518v6.22H556.22v9.611h-7.787v-29.523h31.081v6.148z" class="cls-2" transform="translate(-548.433 -354.788)"/>
                    </g>
                    <g id="Grupo_2810" transform="translate(10.004 38.189)">
                        <path id="Trazado_531" d="M287.032 448.717h5.368v1.631h-3.511v1.142h3.175v1.544h-3.175v2.4h-1.861z" class="cls-2" transform="translate(-287.032 -448.583)"/>
                        <path id="Trazado_532" d="M316.491 451.891v-.019a3.619 3.619 0 0 1 7.233-.019v.019a3.619 3.619 0 0 1-7.233.019zm5.334 0v-.019a1.745 1.745 0 0 0-1.727-1.813 1.711 1.711 0 0 0-1.7 1.794v.019a1.744 1.744 0 0 0 1.717 1.813 1.714 1.714 0 0 0 1.71-1.794z" class="cls-2" transform="translate(-304.746 -448.38)"/>
                        <path id="Trazado_533" d="M351.507 448.717h3.176a2.935 2.935 0 0 1 2.187.729 2.083 2.083 0 0 1 .595 1.564v.019a2.123 2.123 0 0 1-1.381 2.062l1.6 2.341h-2.149l-1.353-2.034h-.815v2.034h-1.861zm3.089 3.223c.633 0 1-.307 1-.8v-.02c0-.527-.384-.8-1.007-.8h-1.218v1.612z" class="cls-2" transform="translate(-325.802 -448.583)"/>
                        <path id="Trazado_534" d="M383.252 448.717h5.4v1.583h-3.559v1.017h3.224v1.468h-3.224v1.065h3.607v1.583h-5.449z" class="cls-2" transform="translate(-344.891 -448.583)"/>
                        <path id="Trazado_535" d="M413.841 448.717h1.871v6.715h-1.871z" class="cls-2" transform="translate(-363.285 -448.583)"/>
                        <path id="Trazado_536" d="M435.478 451.891v-.019a3.486 3.486 0 0 1 3.616-3.492 3.916 3.916 0 0 1 2.725.978l-1.094 1.314a2.369 2.369 0 0 0-1.621-.634 1.764 1.764 0 0 0-1.717 1.842v.02a1.774 1.774 0 0 0 1.823 1.861 1.9 1.9 0 0 0 1.074-.278v-.815h-1.324v-1.362h3.089v3.022a4.538 4.538 0 0 1-2.916 1.036 3.453 3.453 0 0 1-3.655-3.473z" class="cls-2" transform="translate(-376.296 -448.38)"/>
                        <path id="Trazado_537" d="M469 448.717h1.737l2.763 3.549v-3.549h1.842v6.715h-1.631l-2.869-3.684v3.684H469z" class="cls-2" transform="translate(-396.455 -448.583)"/>
                        <path id="Trazado_538" d="M523.441 448.717h5.4v1.583h-3.559v1.017h3.223v1.468h-3.223v1.065h3.607v1.583h-5.449z" class="cls-2" transform="translate(-429.19 -448.583)"/>
                        <path id="Trazado_539" d="M555.009 452.017l-2.207-3.3h2.139l1.19 1.89 1.2-1.89h2.091L557.216 452l2.3 3.435h-2.139l-1.286-2.024-1.295 2.024h-2.091z" class="cls-2" transform="translate(-446.789 -448.583)"/>
                        <path id="Trazado_540" d="M584.162 451.891v-.019a3.45 3.45 0 0 1 3.54-3.492 3.287 3.287 0 0 1 2.849 1.4l-1.4 1.084a1.8 1.8 0 0 0-1.468-.787 1.661 1.661 0 0 0-1.6 1.775v.019a1.661 1.661 0 0 0 1.6 1.794 1.835 1.835 0 0 0 1.516-.816l1.4 1a3.536 3.536 0 0 1-6.437-1.957z" class="cls-2" transform="translate(-465.703 -448.38)"/>
                        <path id="Trazado_541" d="M616.75 448.717h1.861v2.513H621v-2.513h1.861v6.715H621v-2.552h-2.389v2.552h-1.861z" class="cls-2" transform="translate(-485.299 -448.583)"/>
                        <path id="Trazado_542" d="M651.016 448.6h1.794l2.858 6.764h-2l-.489-1.2h-2.59l-.48 1.2h-1.957zm1.631 4.116l-.747-1.916-.758 1.909z" class="cls-2" transform="translate(-504.185 -448.51)"/>
                        <path id="Trazado_543" d="M683.078 448.717h1.737l2.762 3.549v-3.549h1.842v6.715h-1.631l-2.868-3.684v3.684h-1.842z" class="cls-2" transform="translate(-525.184 -448.583)"/>
                        <path id="Trazado_544" d="M715.833 451.891v-.019a3.486 3.486 0 0 1 3.617-3.492 3.917 3.917 0 0 1 2.724.978l-1.094 1.314a2.369 2.369 0 0 0-1.621-.634 1.764 1.764 0 0 0-1.717 1.842v.02a1.773 1.773 0 0 0 1.823 1.861 1.9 1.9 0 0 0 1.074-.278v-.815h-1.324v-1.362h3.085v3.022a4.538 4.538 0 0 1-2.916 1.036 3.453 3.453 0 0 1-3.651-3.473z" class="cls-2" transform="translate(-544.88 -448.38)"/>
                        <path id="Trazado_545" d="M749.358 448.717h5.4v1.583H751.2v1.017h3.223v1.468H751.2v1.065h3.607v1.583h-5.449z" class="cls-2" transform="translate(-565.04 -448.583)"/>
                    </g>
                    <g id="Grupo_2811" transform="translate(37.719 54.049)">
                        <path id="Trazado_546" d="M360.716 489H357.2v1.968h3.146v.593H357.2v2.018h3.558v.593h-4.209v-5.766h4.167z" class="cls-2" transform="translate(-356.549 -488.309)"/>
                        <path id="Trazado_547" d="M372.044 488.408h.651v5.164h3.245v.6h-3.9z" class="cls-2" transform="translate(-365.867 -488.309)"/>
                        <path id="Trazado_548" d="M397.1 492.592h-.033l-2.1-3.08v4.662h-.634v-5.766h.659l2.1 3.146 2.1-3.146h.659v5.766h-.651V489.5z" class="cls-2" transform="translate(-379.271 -488.309)"/>
                        <path id="Trazado_549" d="M418.089 489h-3.517v1.968h3.146v.593h-3.146v2.018h3.558v.593h-4.209v-5.766h4.168z" class="cls-2" transform="translate(-391.048 -488.309)"/>
                        <path id="Trazado_550" d="M431.443 493.132a1.768 1.768 0 0 1-.371.626 1.474 1.474 0 0 1-.566.375 2.021 2.021 0 0 1-.716.124 1.891 1.891 0 0 1-1.079-.288 2.351 2.351 0 0 1-.7-.733l.469-.4a2.207 2.207 0 0 0 .565.614 1.284 1.284 0 0 0 .754.21 1.048 1.048 0 0 0 .807-.35 1.48 1.48 0 0 0 .321-1.033v-3.863h.651v3.855a2.579 2.579 0 0 1-.135.863z" class="cls-2" transform="translate(-399.521 -488.309)"/>
                        <path id="Trazado_551" d="M447.52 492.274a2.982 2.982 0 0 1-.6.952 2.864 2.864 0 0 1-.931.655 3.112 3.112 0 0 1-2.4 0 2.838 2.838 0 0 1-1.524-1.594 3.118 3.118 0 0 1-.21-1.141 3.053 3.053 0 0 1 .214-1.141 2.974 2.974 0 0 1 .6-.952 2.871 2.871 0 0 1 .931-.655 3.109 3.109 0 0 1 2.4 0 2.836 2.836 0 0 1 1.524 1.594 3.117 3.117 0 0 1 .21 1.141 3.061 3.061 0 0 1-.214 1.141zm-.63-2.055a2.261 2.261 0 0 0-1.194-1.268 2.17 2.17 0 0 0-.91-.19 2.21 2.21 0 0 0-.91.185 2.138 2.138 0 0 0-.712.507 2.366 2.366 0 0 0-.466.754 2.529 2.529 0 0 0-.169.927 2.558 2.558 0 0 0 .169.931 2.26 2.26 0 0 0 1.194 1.269 2.167 2.167 0 0 0 .91.189 2.211 2.211 0 0 0 .91-.185 2.15 2.15 0 0 0 .712-.507 2.363 2.363 0 0 0 .465-.754 2.52 2.52 0 0 0 .169-.926 2.554 2.554 0 0 0-.169-.932z" class="cls-2" transform="translate(-407.844 -488.16)"/>
                        <path id="Trazado_552" d="M465.677 494.174L464 491.933h-1.648v2.24h-.65v-5.766h2.479a2.791 2.791 0 0 1 .861.124 1.935 1.935 0 0 1 .655.35 1.565 1.565 0 0 1 .42.544 1.644 1.644 0 0 1 .148.7 1.706 1.706 0 0 1-.115.647 1.478 1.478 0 0 1-.325.494 1.841 1.841 0 0 1-.5.35 2.33 2.33 0 0 1-.626.2l1.771 2.354zm-.446-4.863a1.74 1.74 0 0 0-1.09-.3h-1.784v2.348h1.776a2.058 2.058 0 0 0 .594-.083 1.459 1.459 0 0 0 .471-.236 1.078 1.078 0 0 0 .309-.376 1.11 1.11 0 0 0 .112-.5 1.012 1.012 0 0 0-.388-.853z" class="cls-2" transform="translate(-419.783 -488.309)"/>
                        <path id="Trazado_553" d="M487.7 494.174h-.651v-5.164h-1.936v-.6h4.522v.6H487.7z" class="cls-2" transform="translate(-433.858 -488.309)"/>
                        <path id="Trazado_554" d="M501.983 488.408v5.766h-.651v-5.766z" class="cls-2" transform="translate(-443.61 -488.309)"/>
                        <path id="Trazado_555" d="M512.987 491.068a1.739 1.739 0 0 1-.491.593 2.127 2.127 0 0 1-.72.359 3.135 3.135 0 0 1-.874.12h-1.4v2.034h-.65v-5.766h2.158a2.892 2.892 0 0 1 .885.128 2.02 2.02 0 0 1 .684.362 1.569 1.569 0 0 1 .437.576 1.877 1.877 0 0 1 .152.77 1.788 1.788 0 0 1-.181.824zm-.9-1.742a1.842 1.842 0 0 0-1.127-.317h-1.46v2.537h1.429a2.2 2.2 0 0 0 .649-.09 1.511 1.511 0 0 0 .5-.26 1.136 1.136 0 0 0 .322-.4 1.2 1.2 0 0 0 .112-.523 1.1 1.1 0 0 0-.42-.946z" class="cls-2" transform="translate(-448.132 -488.309)"/>
                        <path id="Trazado_556" d="M529.332 492.274a2.97 2.97 0 0 1-.6.952 2.859 2.859 0 0 1-.93.655 3.112 3.112 0 0 1-2.4 0 2.838 2.838 0 0 1-1.524-1.594 3.118 3.118 0 0 1-.21-1.141 3.061 3.061 0 0 1 .214-1.141 2.974 2.974 0 0 1 .6-.952 2.868 2.868 0 0 1 .931-.655 3.108 3.108 0 0 1 2.4 0 2.832 2.832 0 0 1 1.524 1.594 3.117 3.117 0 0 1 .21 1.141 3.069 3.069 0 0 1-.215 1.141zm-.63-2.055a2.261 2.261 0 0 0-1.194-1.268 2.171 2.171 0 0 0-.91-.19 2.213 2.213 0 0 0-.911.185 2.146 2.146 0 0 0-.712.507 2.372 2.372 0 0 0-.465.754 2.531 2.531 0 0 0-.169.927 2.56 2.56 0 0 0 .169.931 2.263 2.263 0 0 0 1.194 1.269 2.169 2.169 0 0 0 .91.189 2.21 2.21 0 0 0 .91-.185 2.15 2.15 0 0 0 .712-.507 2.363 2.363 0 0 0 .465-.754 2.527 2.527 0 0 0 .169-.926 2.562 2.562 0 0 0-.17-.932z" class="cls-2" transform="translate(-457.04 -488.16)"/>
                        <path id="Trazado_557" d="M556.211 492.423a2.677 2.677 0 0 1-.63.919 2.994 2.994 0 0 1-.972.61 3.348 3.348 0 0 1-1.24.222h-2v-5.766h2a3.406 3.406 0 0 1 1.24.218 2.925 2.925 0 0 1 .972.606 2.686 2.686 0 0 1 .63.914 3.03 3.03 0 0 1 0 2.277zm-.622-2.022a2.156 2.156 0 0 0-.478-.729 2.214 2.214 0 0 0-.754-.486 2.652 2.652 0 0 0-.988-.177h-1.351v4.563h1.351a2.7 2.7 0 0 0 .988-.173 2.124 2.124 0 0 0 1.232-1.2 2.345 2.345 0 0 0 .169-.9 2.386 2.386 0 0 0-.168-.899z" class="cls-2" transform="translate(-473.698 -488.309)"/>
                        <path id="Trazado_558" d="M573.346 489h-3.517v1.968h3.146v.593h-3.146v2.018h3.558v.593h-4.209v-5.766h4.168z" class="cls-2" transform="translate(-484.408 -488.309)"/>
                        <path id="Trazado_559" d="M596.615 493.526a2.918 2.918 0 0 1-.523.317 2.958 2.958 0 0 1-.6.206 3.194 3.194 0 0 1-.717.074 2.832 2.832 0 0 1-2.068-.861 2.884 2.884 0 0 1-.605-.943 3.224 3.224 0 0 1 0-2.331 2.984 2.984 0 0 1 .605-.952 2.823 2.823 0 0 1 .923-.642 2.875 2.875 0 0 1 1.169-.235 3.55 3.55 0 0 1 .712.066 3 3 0 0 1 .589.185 2.653 2.653 0 0 1 .5.289 4.365 4.365 0 0 1 .445.374l-.445.478a3.631 3.631 0 0 0-.795-.568 2.223 2.223 0 0 0-2.611.461 2.328 2.328 0 0 0-.47.753 2.551 2.551 0 0 0-.169.935 2.583 2.583 0 0 0 .169.939 2.313 2.313 0 0 0 .47.757 2.216 2.216 0 0 0 .708.507 2.114 2.114 0 0 0 .886.185 2.223 2.223 0 0 0 1.021-.218 3.57 3.57 0 0 0 .84-.614l.428.42a4.109 4.109 0 0 1-.462.418z" class="cls-2" transform="translate(-498.061 -488.16)"/>
                        <path id="Trazado_560" d="M614.047 494.112h-.7l-.676-1.524h-3.138l-.684 1.524h-.667l2.627-5.807h.61zm-2.941-5.04l-1.318 2.94h2.628z" class="cls-2" transform="translate(-507.863 -488.247)"/>
                        <path id="Trazado_561" d="M630.164 492.592h-.033l-2.1-3.08v4.662h-.631v-5.766h.659l2.1 3.146 2.1-3.146h.659v5.766h-.651V489.5z" class="cls-2" transform="translate(-519.416 -488.309)"/>
                        <path id="Trazado_562" d="M650.2 488.511a1.869 1.869 0 0 1 .592.289 1.251 1.251 0 0 1 .378.452 1.339 1.339 0 0 1 .132.6 1.472 1.472 0 0 1-.078.5 1.323 1.323 0 0 1-.21.379 1.372 1.372 0 0 1-.291.276 1.929 1.929 0 0 1-.332.185 2.561 2.561 0 0 1 .481.193 1.6 1.6 0 0 1 .391.284 1.241 1.241 0 0 1 .263.4 1.329 1.329 0 0 1 .1.527 1.477 1.477 0 0 1-.148.667 1.373 1.373 0 0 1-.423.5 2.027 2.027 0 0 1-.662.309 3.214 3.214 0 0 1-.855.107h-2.558v-5.766h2.45a2.7 2.7 0 0 1 .77.098zm.082 2.2a.9.9 0 0 0 .369-.777.834.834 0 0 0-.328-.695 1.508 1.508 0 0 0-.944-.256h-1.75v1.993h1.7a1.6 1.6 0 0 0 .957-.263zm.313 2.611a.893.893 0 0 0 .378-.769.841.841 0 0 0-.386-.74 2.051 2.051 0 0 0-1.142-.261h-1.816v2.048h1.931a1.736 1.736 0 0 0 1.04-.276z" class="cls-2" transform="translate(-531.193 -488.309)"/>
                        <path id="Trazado_563" d="M664.347 488.408v5.766h-.647v-5.766z" class="cls-2" transform="translate(-541.244 -488.309)"/>
                        <path id="Trazado_564" d="M676.242 492.274a2.97 2.97 0 0 1-.6.952 2.86 2.86 0 0 1-.93.655 3.112 3.112 0 0 1-2.4 0 2.839 2.839 0 0 1-1.524-1.594 3.11 3.11 0 0 1-.21-1.141 3.061 3.061 0 0 1 .214-1.141 2.981 2.981 0 0 1 .6-.952 2.872 2.872 0 0 1 .931-.655 3.109 3.109 0 0 1 2.4 0 2.833 2.833 0 0 1 1.523 1.594 3.117 3.117 0 0 1 .21 1.141 3.069 3.069 0 0 1-.214 1.141zm-.63-2.055a2.258 2.258 0 0 0-1.194-1.268 2.169 2.169 0 0 0-.91-.19 2.214 2.214 0 0 0-.911.185 2.146 2.146 0 0 0-.712.507 2.378 2.378 0 0 0-.465.754 2.528 2.528 0 0 0-.169.927 2.557 2.557 0 0 0 .169.931 2.263 2.263 0 0 0 1.194 1.269 2.17 2.17 0 0 0 .91.189 2.209 2.209 0 0 0 .91-.185 2.15 2.15 0 0 0 .712-.507 2.362 2.362 0 0 0 .465-.754 2.527 2.527 0 0 0 .169-.926 2.562 2.562 0 0 0-.168-.932z" class="cls-2" transform="translate(-545.38 -488.16)"/>
                    </g>
                </g>
            </g>
        </g>
    </g>
</svg>
