<svg xmlns="http://www.w3.org/2000/svg" width="368.783" height="106.467"><g data-name="Grupo 42"><g data-name="Grupo 41"><g data-name="Grupo 27"><path data-name="Trazado 24" d="M213.011 93.788v8.092a3.48 3.48 0 00.286 1.524 2 2 0 001.985 1.093 2.8 2.8 0 002.836-1.911 7.732 7.732 0 00.409-2.814v-5.984h2.056v12.188h-1.933l.019-1.8a4.1 4.1 0 01-.97 1.174 4.233 4.233 0 01-2.792.956 3.579 3.579 0 01-3.486-1.744 5.252 5.252 0 01-.5-2.49v-8.284z" fill="#fff"/></g><g data-name="Grupo 29"><path data-name="Trazado 26" d="M243.419 98.6a1.1 1.1 0 00.944-.591 1.841 1.841 0 00.138-.788 1.676 1.676 0 00-.744-1.528 4.013 4.013 0 00-2.13-.472 2.694 2.694 0 00-2.271.87 2.871 2.871 0 00-.487 1.431h-1.914a3.544 3.544 0 011.461-3.145 5.961 5.961 0 013.256-.884 6.612 6.612 0 013.49.818 2.786 2.786 0 011.331 2.55v7.025a.909.909 0 00.13.509.643.643 0 00.554.193c.089 0 .193 0 .3-.014s.234-.03.368-.053v1.513a5.81 5.81 0 01-.733.171 5.258 5.258 0 01-.68.034 1.677 1.677 0 01-1.535-.751 2.9 2.9 0 01-.357-1.126 5.2 5.2 0 01-1.8 1.42 5.512 5.512 0 01-2.58.605 3.835 3.835 0 01-2.773-1.029 3.425 3.425 0 01-1.074-2.576 3.32 3.32 0 011.056-2.624 5.075 5.075 0 012.777-1.149zm-4.312 5.535a2.417 2.417 0 001.535.509 4.723 4.723 0 002.1-.5 2.818 2.818 0 001.706-2.717V99.78a3.576 3.576 0 01-.967.4 8.838 8.838 0 01-1.159.226l-1.238.16a4.773 4.773 0 00-1.673.465 1.816 1.816 0 00-.951 1.7 1.69 1.69 0 00.65 1.4" fill="#fff"/></g><g data-name="Grupo 30"><path data-name="Trazado 27" d="M251.068 102.153a2.9 2.9 0 00.524 1.569 3.312 3.312 0 002.74.992 4.108 4.108 0 002.044-.494 1.637 1.637 0 00.885-1.532 1.306 1.306 0 00-.707-1.2 8.67 8.67 0 00-1.784-.58l-1.65-.408a8.1 8.1 0 01-2.338-.867 2.576 2.576 0 01-1.338-2.3 3.506 3.506 0 011.256-2.8 5.1 5.1 0 013.4-1.07 4.737 4.737 0 014.026 1.617 3.483 3.483 0 01.755 2.2h-1.937a2.36 2.36 0 00-.5-1.256 3.252 3.252 0 00-2.505-.8 3.062 3.062 0 00-1.8.442 1.374 1.374 0 00-.614 1.171 1.426 1.426 0 00.807 1.267 4.883 4.883 0 001.368.5l1.379.327a10.884 10.884 0 013.018 1.037 2.745 2.745 0 011.186 2.48 3.731 3.731 0 01-1.253 2.81 5.363 5.363 0 01-3.807 1.182q-2.758 0-3.9-1.234a4.636 4.636 0 01-1.23-3.055z" fill="#fff"/></g><g data-name="Grupo 32"><path data-name="Trazado 29" d="M274.513 98.6a1.108 1.108 0 00.944-.591 1.825 1.825 0 00.138-.788 1.682 1.682 0 00-.744-1.528 4.011 4.011 0 00-2.129-.472 2.706 2.706 0 00-2.275.87 2.872 2.872 0 00-.484 1.431h-1.914a3.533 3.533 0 011.457-3.145 5.975 5.975 0 013.26-.884 6.626 6.626 0 013.491.818 2.785 2.785 0 011.327 2.55v7.025a.9.9 0 00.13.509.648.648 0 00.553.193c.093 0 .2 0 .309-.014s.234-.03.364-.053v1.513a5.778 5.778 0 01-.728.171 5.3 5.3 0 01-.684.034 1.679 1.679 0 01-1.535-.751 2.883 2.883 0 01-.354-1.126 5.2 5.2 0 01-1.8 1.42 5.524 5.524 0 01-2.583.605 3.829 3.829 0 01-2.769-1.029 3.41 3.41 0 01-1.078-2.576 3.312 3.312 0 011.059-2.624 5.053 5.053 0 012.777-1.149zm-4.312 5.535a2.422 2.422 0 001.536.509 4.731 4.731 0 002.1-.5 2.823 2.823 0 001.706-2.717V99.78a3.568 3.568 0 01-.966.4 9.082 9.082 0 01-1.16.226l-1.238.16a4.727 4.727 0 00-1.673.465 1.811 1.811 0 00-.951 1.7 1.679 1.679 0 00.65 1.4" fill="#fff"/></g><g data-name="Grupo 40"><g data-name="Grupo 20"><path data-name="Rectángulo 2" fill="#fff" d="M79.062 0h11.229v70.104H79.062z"/></g><g data-name="Grupo 21"><path data-name="Trazado 19" d="M170.266 21.426a20 20 0 01-4.163 12.638 22.034 22.034 0 01-11.129 7.542l16.538 28.5h-12.066l-15.6-26.838h-12.163v26.838h-11.241V0h25.693a29.555 29.555 0 0110.244 1.662 21.836 21.836 0 017.594 4.576 19.651 19.651 0 014.68 6.817 21.7 21.7 0 011.613 8.371m-11.233 0a11.041 11.041 0 00-3.222-8.319q-3.23-3.123-9.676-3.122h-14.452v23.3h14.14q6.244 0 9.731-3.222a11.2 11.2 0 003.483-8.635" fill="#fff"/></g><g data-name="Grupo 22"><path data-name="Trazado 20" d="M245.735 18.827a14.161 14.161 0 01-.937 5.2 15.447 15.447 0 01-2.442 4.215 16.926 16.926 0 01-6.814 4.936 20.863 20.863 0 014.888 1.926 15.23 15.23 0 017.126 8.218 17.819 17.819 0 011.089 6.394 21.487 21.487 0 01-1.5 8.114 16.851 16.851 0 01-4.684 6.5 21.95 21.95 0 01-8.006 4.264 38.792 38.792 0 01-11.5 1.509h-27.044V0h27.253a32.565 32.565 0 019.932 1.353 19.216 19.216 0 017.022 3.848 15.834 15.834 0 014.212 5.98 20.273 20.273 0 011.405 7.646m-22.467 10.3a13.387 13.387 0 008.215-2.55q3.435-2.549 3.435-7.542a8.342 8.342 0 00-3.171-7.022q-3.179-2.442-8.583-2.442h-16.225v19.556zm-.416 31.413q6.971 0 10.869-2.963a9.8 9.8 0 003.9-8.27q0-5.621-4.059-8.114t-10.925-2.5h-15.7v21.845z" fill="#fff"/></g><g data-name="Grupo 23"><path data-name="Rectángulo 3" fill="#fff" d="M274.96 0h11.233v70.104H274.96z"/></g><g data-name="Grupo 24"><path data-name="Trazado 21" d="M368.783 34.848q0 17.374-8.895 26.317t-26.265 8.943h-21.11V.008h21.11q17.379 0 26.265 8.839t8.895 26.001m-11.233 0a35.54 35.54 0 00-1.613-11.389 19.5 19.5 0 00-4.68-7.75 18.022 18.022 0 00-7.49-4.368 34.79 34.79 0 00-10.144-1.353h-9.88v50.136h9.88a32.419 32.419 0 0010.144-1.457 18.948 18.948 0 007.49-4.471 19.479 19.479 0 004.68-7.8 36.377 36.377 0 001.613-11.545" fill="#fff"/></g><g data-name="Grupo 25"><path data-name="Trazado 22" d="M0 0h52.738v9.88h-41.71v20.18H48.76v9.988H11.029v30.06H0z" fill="#fff"/></g><g data-name="Grupo 26"><path data-name="Trazado 23" d="M197.166 100.583a4.734 4.734 0 00.647 2.312q1.088 1.656 3.829 1.658a6.59 6.59 0 002.237-.361 2.567 2.567 0 001.948-2.528 2.206 2.206 0 00-.829-1.947 8.17 8.17 0 00-2.624-.993l-2.189-.509a9.791 9.791 0 01-3.045-1.1 3.533 3.533 0 01-1.546-3.13 4.886 4.886 0 011.52-3.7 5.99 5.99 0 014.3-1.446 7.353 7.353 0 014.349 1.267 4.632 4.632 0 011.784 4.059h-2.126a4.322 4.322 0 00-.7-2.059 3.965 3.965 0 00-3.371-1.308 3.782 3.782 0 00-2.758.84 2.675 2.675 0 00-.844 1.959 1.93 1.93 0 00.993 1.8 14.62 14.62 0 002.947.91l2.271.536a6.839 6.839 0 012.535 1.055 4.009 4.009 0 011.543 3.4 4.282 4.282 0 01-1.966 3.97 8.655 8.655 0 01-4.583 1.2 6.724 6.724 0 01-4.758-1.595 5.419 5.419 0 01-1.688-4.289z" fill="#fff"/></g><g data-name="Grupo 28"><path data-name="Trazado 25" d="M223.754 89.203h1.992v6.062a4.6 4.6 0 011.61-1.334 4.523 4.523 0 012.033-.461 4.78 4.78 0 013.71 1.565 6.638 6.638 0 011.42 4.613 7.914 7.914 0 01-1.4 4.806 4.57 4.57 0 01-3.9 1.91 3.991 3.991 0 01-2.353-.672 5.638 5.638 0 01-1.223-1.275v1.561h-1.888zm7.832 14.032a6.5 6.5 0 00.829-3.483 5.708 5.708 0 00-.829-3.186 2.721 2.721 0 00-2.435-1.264 3.391 3.391 0 00-2.461 1.034 4.635 4.635 0 00-1.059 3.416 7.5 7.5 0 00.435 2.787 3 3 0 003.026 2.015 2.751 2.751 0 002.494-1.319" fill="#fff"/></g><g data-name="Grupo 31"><path data-name="Trazado 28" d="M261.914 90.385h2.069v3.4h1.948v1.673h-1.948v7.955a.854.854 0 00.435.851 1.808 1.808 0 00.795.126c.1 0 .205 0 .32-.007s.245-.019.4-.037v1.628a4.323 4.323 0 01-.736.145 6.5 6.5 0 01-.826.048 2.214 2.214 0 01-1.944-.736 3.252 3.252 0 01-.513-1.9v-8.07h-1.65v-1.673h1.65z" fill="#fff"/></g><g data-name="Grupo 33"><path data-name="Trazado 30" d="M287.791 89.256h6.684a6.277 6.277 0 015.282 2.449 9.11 9.11 0 011.672 5.658 11.414 11.414 0 01-.988 4.813 6.094 6.094 0 01-5.989 3.8h-6.661zm6.241 14.786a5.991 5.991 0 001.848-.238 4.06 4.06 0 002.111-1.709 6.943 6.943 0 00.948-2.6 9.729 9.729 0 00.167-1.751 8.287 8.287 0 00-1.208-4.825 4.41 4.41 0 00-3.888-1.721h-3.927v12.839z" fill="#fff"/></g><g data-name="Grupo 34"><path data-name="Trazado 31" d="M313.083 95.002a6.157 6.157 0 011.617 4.62 7.958 7.958 0 01-1.424 4.866 5.149 5.149 0 01-4.423 1.922 4.971 4.971 0 01-3.962-1.7 6.721 6.721 0 01-1.472-4.564 7.281 7.281 0 011.55-4.888 5.186 5.186 0 014.159-1.818 5.461 5.461 0 013.955 1.565m-1.271 8.1a7.752 7.752 0 00.747-3.427 6.146 6.146 0 00-.539-2.773 3.034 3.034 0 00-2.948-1.684 2.9 2.9 0 00-2.7 1.431 6.716 6.716 0 00-.844 3.457 5.846 5.846 0 00.844 3.242 2.968 2.968 0 002.673 1.297 2.794 2.794 0 002.766-1.539m-.264-14.221l-3.041 3.289h-1.568l2.081-3.289z" fill="#fff"/></g><g data-name="Grupo 35"><path data-name="Rectángulo 4" fill="#fff" d="M317.272 89.258h2.048v16.72h-2.048z"/></g></g><g data-name="Grupo 36"><path data-name="Trazado 32" d="M328.923 98.6a1.111 1.111 0 00.948-.591 1.848 1.848 0 00.134-.788 1.676 1.676 0 00-.744-1.528 4 4 0 00-2.126-.472 2.7 2.7 0 00-2.275.87 2.871 2.871 0 00-.487 1.431h-1.91a3.533 3.533 0 011.457-3.145 5.968 5.968 0 013.256-.884 6.628 6.628 0 013.494.818 2.783 2.783 0 011.327 2.55v7.025a.91.91 0 00.13.509.649.649 0 00.554.193c.089 0 .193 0 .308-.014s.231-.03.365-.053v1.513a5.806 5.806 0 01-.733.171 5.216 5.216 0 01-.68.034 1.681 1.681 0 01-1.535-.751 2.835 2.835 0 01-.353-1.126 5.214 5.214 0 01-1.8 1.42 5.528 5.528 0 01-2.584.605 3.842 3.842 0 01-2.773-1.029 3.425 3.425 0 01-1.074-2.576 3.309 3.309 0 011.06-2.624 5.05 5.05 0 012.776-1.149zm-4.312 5.535a2.417 2.417 0 001.535.509 4.723 4.723 0 002.1-.5 2.822 2.822 0 001.71-2.717V99.78a3.631 3.631 0 01-.967.4 9.048 9.048 0 01-1.16.226l-1.241.16a4.773 4.773 0 00-1.673.465 1.816 1.816 0 00-.951 1.7 1.69 1.69 0 00.65 1.4" fill="#fff"/></g><g data-name="Grupo 37"><path data-name="Trazado 33" d="M335.41 93.788h1.948v2.1a4.584 4.584 0 011.175-1.494 3.04 3.04 0 012.148-.884c.041 0 .1.007.193.014l.469.045v2.16c-.127-.019-.234-.038-.338-.045s-.216-.011-.335-.011a2.933 2.933 0 00-2.379 1 3.481 3.481 0 00-.829 2.293v7.011h-2.052z" fill="#fff"/></g><g data-name="Grupo 38"><path data-name="Trazado 34" d="M350.646 94.122a4.614 4.614 0 011.844 1.576 5.539 5.539 0 01.814 2.152 13.989 13.989 0 01.179 2.684h-8.862a5.239 5.239 0 00.87 2.988 2.9 2.9 0 002.516 1.126 3.226 3.226 0 002.539-1.063 3.628 3.628 0 00.755-1.428h2.014a4.252 4.252 0 01-.532 1.491 5.44 5.44 0 01-1 1.349 4.753 4.753 0 01-2.294 1.23 7.053 7.053 0 01-1.661.182 5.089 5.089 0 01-3.833-1.657 6.458 6.458 0 01-1.572-4.639 7.006 7.006 0 011.584-4.766 5.205 5.205 0 014.14-1.836 5.5 5.5 0 012.5.61m.733 4.787a5.277 5.277 0 00-.573-2.13 2.948 2.948 0 00-2.788-1.479 3.089 3.089 0 00-2.349 1.019 3.886 3.886 0 00-1.007 2.59z" fill="#fff"/></g><g data-name="Grupo 39"><path data-name="Trazado 35" d="M357.299 102.153a2.908 2.908 0 00.524 1.569 3.307 3.307 0 002.74.992 4.108 4.108 0 002.044-.494 1.639 1.639 0 00.881-1.532 1.3 1.3 0 00-.7-1.2 8.684 8.684 0 00-1.785-.58l-1.65-.408a8.1 8.1 0 01-2.338-.867 2.579 2.579 0 01-1.342-2.3 3.5 3.5 0 011.26-2.8 5.1 5.1 0 013.4-1.07 4.734 4.734 0 014.025 1.617 3.483 3.483 0 01.755 2.2h-1.937a2.341 2.341 0 00-.505-1.256 3.239 3.239 0 00-2.5-.8 3.054 3.054 0 00-1.8.442 1.373 1.373 0 00-.613 1.171 1.425 1.425 0 00.806 1.267 4.836 4.836 0 001.368.5l1.379.327a10.8 10.8 0 013.015 1.037 2.738 2.738 0 011.193 2.472 3.723 3.723 0 01-1.249 2.81 5.367 5.367 0 01-3.806 1.182c-1.84 0-3.137-.412-3.9-1.234a4.633 4.633 0 01-1.227-3.055z" fill="#fff"/></g></g></g></svg>