<svg xmlns="http://www.w3.org/2000/svg" xmlns:xlink="http://www.w3.org/1999/xlink" width="43" height="37" viewBox="0 0 43 37">
    <defs>
        <linearGradient id="l9ygfl4lwb" x1="0%" x2="100%" y1="50%" y2="50%">
            <stop offset="0%" stop-color="#00F2DB"/>
            <stop offset="100%" stop-color="#00F295"/>
        </linearGradient>
        <linearGradient id="lqxcdosxsf" x1="0%" x2="100.001%" y1="50%" y2="50%">
            <stop offset="0%" stop-color="#00F2DB"/>
            <stop offset="100%" stop-color="#00F295"/>
        </linearGradient>
        <path id="y1atjlj95a" d="M.082 9.996c1.41 1.398 3.27 2.08 5.118 2.048v.715c0 .253.207.458.462.458h.906c.255 0 .462-.205.462-.458v-.984c1.116-.316 2.169-.908 3.048-1.78 2.76-2.734 2.76-7.168 0-9.904L.082 9.996z"/>
        <path id="xdats33fse" d="M21.011 0c-.255 0-.462.205-.462.458v.976c-1.115.317-2.168.909-3.047 1.78-2.76 2.735-2.76 7.17 0 9.904l9.995-9.904c-1.41-1.398-3.269-2.08-5.118-2.049V.458c0-.253-.206-.458-.462-.458h-.906z"/>
        <filter id="p0wbyr1gvd" width="158%" height="153.4%" x="-20.7%" y="-19.1%" filterUnits="objectBoundingBox">
            <feOffset dx="1" dy="1" in="SourceAlpha" result="shadowOffsetOuter1"/>
            <feGaussianBlur in="shadowOffsetOuter1" result="shadowBlurOuter1" stdDeviation="1"/>
            <feColorMatrix in="shadowBlurOuter1" values="0 0 0 0 0.617001299 0 0 0 0 0.617001299 0 0 0 0 0.617001299 0 0 0 0.5 0"/>
        </filter>
    </defs>
    <g fill="none" fill-rule="evenodd">
        <g>
            <g>
                <g>
                    <g>
                        <path fill="#FFF" d="M7.254 3.323h2.621l-3.462 9.424c-.494 1.344-1.148 2.32-1.964 2.93-.815.608-1.83.881-3.044.819v-2.259c.658.013 1.18-.125 1.567-.414.386-.288.693-.752.921-1.392L0 3.323h2.678l2.476 6.324 2.1-6.324zM12.742 9.937c.494.496 1.12.744 1.88.744.76 0 1.39-.248 1.89-.744.5-.495.75-1.132.75-1.91 0-.777-.25-1.414-.75-1.91-.5-.495-1.13-.743-1.89-.743s-1.386.248-1.88.743c-.494.496-.74 1.133-.74 1.91 0 .778.246 1.415.74 1.91zm4.52-6.614h2.45v9.409h-2.45v-1.11c-.735.916-1.767 1.373-3.096 1.373-1.266 0-2.352-.48-3.257-1.44-.905-.959-1.358-2.135-1.358-3.528 0-1.392.453-2.568 1.358-3.528s1.991-1.44 3.257-1.44c1.33 0 2.361.458 3.096 1.374v-1.11zM26.147 3.06c1.038 0 1.896.345 2.574 1.034.677.69 1.016 1.644 1.016 2.86v5.778h-2.45V7.256c0-.627-.171-1.107-.513-1.44-.342-.332-.798-.498-1.367-.498-.634 0-1.14.194-1.52.583-.38.389-.57.972-.57 1.75v5.08h-2.45V3.324h2.45v1.054c.596-.878 1.539-1.318 2.83-1.318M39.581 12.732L36.733 12.732 33.276 8.457 33.276 12.732 30.826 12.732 30.826 3.323 33.276 3.323 33.276 7.479 36.543 3.323 39.467 3.323 35.65 7.971zM40.479 12.732L40.479 6.306 42.929 3.323 42.929 12.732z" transform="translate(-16 -106) translate(16 106) translate(0 5.165) translate(0 15.22)"/>
                        <path fill="#00F395" d="M40.479 0.077L42.929 3.059 42.929 0.077z" transform="translate(-16 -106) translate(16 106) translate(0 5.165) translate(0 15.22)"/>
                    </g>
                    <g transform="translate(-16 -106) translate(16 106) translate(0 5.165) translate(15.35 .01)">
                        <mask id="cr2s3gmmuc" fill="#fff">
                            <use xlink:href="#y1atjlj95a"/>
                        </mask>
                        <path fill="url(#l9ygfl4lwb)" d="M.082 9.996c1.41 1.398 3.27 2.08 5.118 2.048v.715c0 .253.207.458.462.458h.906c.255 0 .462-.205.462-.458v-.984c1.116-.316 2.169-.908 3.048-1.78 2.76-2.734 2.76-7.168 0-9.904L.082 9.996z" mask="url(#cr2s3gmmuc)"/>
                    </g>
                </g>
                <g transform="translate(-16 -106) translate(16 106)">
                    <use fill="#000" filter="url(#p0wbyr1gvd)" xlink:href="#xdats33fse"/>
                    <use fill="url(#lqxcdosxsf)" xlink:href="#xdats33fse"/>
                </g>
            </g>
        </g>
    </g>
</svg>
